PathFileType	3	(X/Y/Z)	D:\minhoCalibration\240510\subject2_KPNP\preferred\preferred02.trc
DataRate	CameraRate	NumFrames	NumMarkers	Units	OrigDataRate	OrigDataStartFrame	OrigNumFrames
200.0	200.0	15	10	mm	200.0	457	197	
Frame#	Time	Left_Ankle_Outer1			Left_Ankle_Inner1			Left_Knee_Outer1			Left_Knee_Inner1			Left_Wrist1			Right_Wrist1			Right_Knee_Inner1			Right_Knee_Outer1			Right_Ankle_Inner1			Right_Ankle_Outer1			
		X1	Y1	Z1	X2	Y2	Z2	X3	Y3	Z3	X4	Y4	Z4	X5	Y5	Z5	X6	Y6	Z6	X7	Y7	Z7	X8	Y8	Z8	X9	Y9	Z9	X10	Y10	Z10	
457	2.275	-447.60281	84.606186	-716.29553	-435.33389	87.485054	-663.10303	-302.32016	507.35538	-771.96741	-322.85153	493.28217	-679.3197	-271.44608	972.39117	-820.11688	-510.53262	1074.6527	-599.10413	-437.78412	592.25348	-383.98218	-523.39331	631.69556	-369.22815	-535.67084	249.33249	-598.22906	-629.53052	258.26175	-567.95874
458	2.28	-447.30066	84.183792	-716.00049	-435.37146	87.507851	-663.28638	-301.26111	507.42752	-771.77441	-322.56451	493.25226	-679.36646	-270.78189	973.25623	-818.67224	-512.8941	1071.3768	-599.28809	-441.83798	584.61652	-393.44153	-526.84174	622.76422	-381.88034	-534.82593	243.00673	-610.51703	-629.16187	251.66258	-580.99622
459	2.285	-447.27164	84.092911	-716.10541	-435.93546	87.219505	-663.26697	-300.14642	507.41171	-771.60535	-321.94781	493.19565	-679.31616	-270.237	974.16028	-817.09943	-515.40826	1068.0687	-599.63733	-445.77448	577.26935	-403.17639	-531.50104	615.32477	-390.44046	-534.26233	236.52303	-622.45447	-629.3053	243.7585	-595.15155
460	2.29	-447.96616	85.168266	-717.65076	-435.58594	88.47567	-661.27484	-299.01331	507.22211	-771.34711	-321.41275	493.12646	-679.27734	-269.48645	974.84875	-815.73608	-517.82202	1064.71	-600.00751	-449.47836	570.0871	-413.18408	-535.71521	608.02533	-399.79736	-533.97711	229.80634	-634.21985	-629.33081	236.67201	-608.72162
461	2.295	-447.90582	85.016579	-717.69922	-435.60794	87.833519	-662.98846	-297.77686	507.08914	-771.0686	-320.98489	493.04211	-679.16364	-268.94647	975.96924	-814.02277	-520.56427	1061.415	-600.62836	-452.25253	563.35516	-422.82101	-539.27899	600.52692	-410.38226	-534.03741	223.34859	-645.5722	-629.2149	231.13022	-619.52124
462	2.3	-447.43414	84.347092	-717.16003	-435.82797	87.749176	-663.15234	-296.77322	506.77448	-770.61804	-320.47815	492.89969	-678.90521	-268.26099	976.86896	-812.20172	-523.77594	1058.3217	-601.6347	-455.95099	556.87976	-433.59366	-542.49353	593.40863	-421.15189	-533.7475	216.57866	-657.83875	-629.77759	225.29315	-630.49664
463	2.305	-448.00284	84.953049	-718.33868	-436.15256	86.891754	-664.39453	-295.61832	506.45065	-770.14661	-319.88852	492.72815	-678.6203	-267.89801	977.71075	-810.41083	-526.72565	1055.2456	-602.63281	-458.83896	550.57397	-444.17807	-545.40857	586.58246	-432.04974	-534.31134	209.82497	-669.2738	-629.784	217.18597	-645.68158
464	2.31	-448.09399	84.894157	-718.68683	-436.23795	86.972748	-664.53851	-294.4274	506.06662	-769.58142	-319.53134	492.44705	-678.39526	-267.42767	978.44116	-808.87	-529.5321	1052.2275	-603.83185	-461.3812	544.70392	-455.08377	-547.99127	580.10779	-442.96765	-534.50342	203.83672	-679.07935	-630.14899	210.96916	-656.60126
465	2.315	-448.02667	84.791031	-718.8515	-436.33066	87.594772	-663.5799	-293.12515	505.77951	-768.83545	-318.85052	492.0643	-677.91382	-267.26175	979.72784	-807.54742	-532.48798	1049.3154	-605.1684	-463.68741	538.99677	-465.97861	-550.28302	573.9212	-454.08807	-535.13019	197.61781	-689.80817	-631.26904	204.66621	-666.94794
466	2.32	-447.99088	84.681267	-719.05286	-436.46716	86.644653	-664.80969	-291.72253	505.4035	-768.03168	-318.2626	491.67496	-677.25543	-266.80222	980.4021	-805.55597	-535.41913	1046.4869	-606.53125	-465.69998	533.79633	-477.03549	-552.31256	568.10406	-465.00247	-535.51135	191.95715	-700.78894	-631.2558	198.66975	-679.33978
467	2.325	-447.9827	84.708588	-719.24463	-437.07028	87.371315	-663.53015	-290.22565	505.03464	-767.0401	-317.6376	491.31335	-676.60468	-266.40671	981.18378	-803.44812	-538.39435	1043.7546	-608.03052	-467.13895	528.68726	-487.62323	-554.07147	562.57745	-476.13577	-536.0835	186.47244	-710.41693	-632.60815	192.99028	-690.01105
468	2.33	-447.96445	84.709511	-719.44202	-437.10416	86.68679	-664.8111	-288.56271	504.78525	-766.00195	-317.04547	491.01718	-675.86719	-265.80893	981.7821	-800.1297	-541.38129	1041.0487	-609.5675	-468.94467	524.02655	-498.90802	-555.65076	557.44135	-487.11838	-536.776	181.06047	-719.69592	-633.15448	187.11377	-700.58124
469	2.335	-447.802	84.721848	-719.57349	-436.93112	87.244003	-664.14917	-286.81833	504.56427	-764.90527	-316.42941	490.87561	-675.13574	-265.63501	982.45721	-798.37012	-544.23822	1038.3286	-611.17993	-470.83524	519.76373	-510.40768	-557.20624	552.61963	-497.99875	-537.37506	175.86093	-728.50916	-634.05286	181.70253	-708.85284
470	2.34	-447.74115	84.809074	-719.69489	-437.28207	87.424248	-663.56995	-284.87985	504.26288	-763.72467	-315.67529	490.78244	-673.92773	-266.0899	982.44928	-795.92596	-547.03363	1035.6187	-612.79218	-472.33856	515.75342	-521.24121	-558.80695	548.04071	-508.7222	-537.74731	170.91063	-737.23926	-633.88391	175.6151	-719.86346
471	2.345	-447.64377	84.892929	-719.81207	-437.24185	86.715347	-664.85583	-282.96985	504.03	-762.47504	-315.77655	490.69547	-673.8288	-266.13092	982.91956	-794.15961	-549.66632	1032.9299	-614.4151	-474.0708	512.15533	-531.98309	-560.43701	543.76935	-519.24023	-538.51794	165.42535	-745.16962	-634.15906	170.51466	-726.2688
